<svg width="60" height="31" fill="none" xmlns="http://www.w3.org/2000/svg">
    <path d="M3 29.586A28 28 0 0135.21 1.904c5.333.811 9.752 4.02 13.79 7.596L39.5 19c-2.196-1.945-3.6-2.862-6.5-3.303-2.9-.441-5.576-1.204-8.252 0a15.231 15.231 0 00-8.979 13.889H3z"
          fill="#95CE5A"/>
    <path fill-rule="evenodd" clip-rule="evenodd"
          d="M58.487 27.57l-.5.017c-.228-7.137-3.112-13.812-8.186-18.885C44.511 3.412 37.481.5 30 .5c-7.48 0-14.512 2.912-19.801 8.202C5.125 13.775 2.24 20.45 2.013 27.587l-.014.42-.417.059a1.256 1.256 0 00.176 2.501h56.484a1.258 1.258 0 00.176-2.501l.07-.495zm-17.113-.518zM32.258 3.617h-.004a.6.6 0 01.004 0zM44.48 28.051h11.006l-.02-.518a25.373 25.373 0 00-6.062-15.535l-.351-.412-7.802 7.801.265.348a14.4 14.4 0 012.935 7.848l.03.468zM26.65 17.001l4.216 11.05H41.97l-.045-.54c-.507-6.136-5.66-10.974-11.925-10.974-.963 0-1.9.115-2.797.331l-.553.133zm12.505.29l.35.286 7.787-7.788-.397-.352A25.387 25.387 0 0031.793 3.08l-.535-.038V14.07l.441.052a14.42 14.42 0 017.456 3.17zM28.3 14.12l.442-.05V3.041l-.535.038a25.39 25.39 0 00-15.103 6.357l-.397.352 7.788 7.788.35-.286a14.54 14.54 0 012.195-1.484l.381-.21-1.17-3.068a1.258 1.258 0 012.35-.897l1.152 3.019.437-.12c.685-.187 1.39-.325 2.11-.41zm-.127 13.93l-3.852-10.095-.513.31c-3.19 1.937-5.41 5.325-5.733 9.244l-.045.541h10.143zm-9.425-8.664l-7.802-7.801-.351.412a25.375 25.375 0 00-6.063 15.535l-.02.518h11.006l.03-.468a14.403 14.403 0 012.934-7.848l.266-.348z"
          fill="#333E50"/>
</svg>