<svg width="60" height="60" fill="none" xmlns="http://www.w3.org/2000/svg">
    <g clip-path="url(#clip0)">
        <path d="M54.72 60H5.28c-.78 0-1.44-.66-1.44-1.44 0-.78.66-1.44 1.44-1.44h49.38c.78 0 1.44.66 1.44 1.44.06.78-.6 1.44-1.38 1.44zM54.72 54.6H5.28c-.78 0-1.44-.66-1.44-1.44 0-.78.66-1.44 1.44-1.44h49.38c.78 0 1.44.66 1.44 1.44.06.78-.6 1.44-1.38 1.44zM54.72 49.2H5.28c-.78 0-1.44-.66-1.44-1.44 0-.78.66-1.44 1.44-1.44h49.38c.78 0 1.44.66 1.44 1.44.06.78-.6 1.44-1.38 1.44z"
              fill="#333E50"/>
        <path d="M27 12.5L21 18v15.5c.333.5 1.2 1.7 2 2.5s4 1.667 5.5 2H44c.5 0 2.5-1 3-2 .4-.8-.833-2.667-1.5-3.5.5-.5 1.6-1.7 2-2.5.4-.8-1.167-2.333-2-3 .667-.5 2.1-1.7 2.5-2.5.4-.8-.5-2.333-1-3 0-.167.3-.8 1.5-2 1.5-1.5-.5-2-.5-3s-9 0-11 0-2.5-1-2.5-2 2-6.5 2.5-8S35.5 3 33.5 3c-1.6 0-5 6.333-6.5 9.5z"
              fill="#fff"/>
        <path d="M11.208 36.148h9.299V17.15h-9.299v18.997z" fill="#95CE5A"/>
        <path d="M20.279 17.265l7.644-4.792s-4.735 6.732-4.735 13.235c0 6.504 4.279 11.866 4.279 11.866l-7.188-3.366V17.265z"
              fill="#C3E2FC"/>
        <path d="M49.315 24.225c0-.856-.285-1.712-.798-2.339.912-.685 1.483-1.825 1.483-3.08a3.847 3.847 0 00-3.88-3.88c-1.54 0-3.707 0-5.59.057-.855.057-2.567.057-4.963-.057 1.027-3.08 2.282-6.96 2.51-8.329.4-1.996-.741-3.765-2.852-4.392-2.11-.628-4.222.228-4.963 1.997-1.198 2.909-4.85 9.697-8.842 12.208-.058.057-.172.114-.229.228-.57-.457-1.255-.742-1.996-.742h-5.933a3.129 3.129 0 00-3.138 3.138v15.46a3.128 3.128 0 003.138 3.137h5.819c.97 0 1.825-.456 2.453-1.141 1.711 1.312 4.735 2.51 8.271 2.51h14.262a3.847 3.847 0 003.88-3.88c0-.855-.286-1.71-.8-2.338.913-.742 1.484-1.826 1.484-3.08 0-.856-.285-1.712-.799-2.34a4.038 4.038 0 001.483-3.137zM19.936 34.493c0 .457-.399.856-.855.856h-5.876a.877.877 0 01-.856-.856V19.091c0-.457.4-.856.856-.856h5.876c.456 0 .855.4.855.856v15.402zm26.185-14.09h-.114c-.57 0-1.027.4-1.027.97v.17c-.057.571.285 1.027.799 1.199.684.228 1.197.741 1.255 1.369.057.913-.628 1.711-1.54 1.711h-.115c-.57 0-1.027.4-1.027.97v.171c-.057.57.286 1.027.799 1.198.627.171 1.198.742 1.198 1.37.057.912-.627 1.71-1.54 1.71h-.114c-.57 0-1.027.4-1.027.97v.172c-.057.57.285 1.026.799 1.198.627.17 1.197.741 1.197 1.369.057.912-.627 1.711-1.54 1.711H29.805c-4.107 0-7.016-1.825-7.587-2.567l.057-15.117c0-.229.114-.457.343-.57C27.467 15.44 31.46 7.623 32.43 5.113c.285-.741 1.312-.855 2.167-.627.457.114 1.484.57 1.255 1.768-.17.913-1.026 3.88-2.453 7.987-.057.228-.114.57-.114.798.057 1.37 1.141 2.34 2.34 2.34h5.02c1.825-.058 3.993-.058 5.476-.058.741 0 1.426.514 1.597 1.255.114.97-.627 1.826-1.597 1.826z"
              fill="#333E50"/>
        <path d="M16.171 29.758a1.654 1.654 0 100 3.309 1.654 1.654 0 000-3.309z" fill="#333E50"/>
    </g>
    <defs>
        <clipPath id="clip0">
            <path fill="#fff" d="M0 0h60v60H0z"/>
        </clipPath>
    </defs>
</svg>