<svg xmlns="http://www.w3.org/2000/svg" viewBox="0 0 27.1 27.1"><defs><style>.cls-1{fill:none;stroke:#d9d9d9;stroke-width:1.5px;}.cls-1,.cls-2{stroke-miterlimit:10;}.cls-2{fill:#d9d9d9;stroke:#dad9d9;}</style></defs><title>icon-usd</title><g id="Слой_2" data-name="Слой 2"><g id="Layer_1" data-name="Layer 1"><g id="Layer_1-2" data-name="Layer 1"><g id="Layer_2" data-name="Layer 2"><circle class="cls-1" cx="13.55" cy="13.55" r="12.8"/></g></g><g id="Layer_2-2" data-name="Layer 2"><path class="cls-2" d="M13,20.75V19a4.55,4.55,0,0,1-2.7-.8l.4-1.2a5.32,5.32,0,0,0,2.6.8c1.2,0,2.1-.7,2.1-1.7s-.7-1.6-2-2.1c-1.8-.7-2.9-1.6-2.9-3a2.83,2.83,0,0,1,2.7-2.8V6.35h1.1V8a3.2,3.2,0,0,1,2.2.7l-.4,1.1a4.14,4.14,0,0,0-2.2-.6,1.67,1.67,0,0,0-1.9,1.6c0,.9.7,1.3,2.1,2,1.8.8,2.7,1.7,2.7,3.3A3.17,3.17,0,0,1,14,19v1.7Z"/></g></g></g></svg>