<svg width="60" height="48" fill="none" xmlns="http://www.w3.org/2000/svg">
    <path d="M50.5 39.2H36.2L34 42.1l-8.3-.2-2.6-2.6H9.2c-1.6 0-2.9-1.3-2.9-2.9v-25c0-1.6 1.3-2.9 2.9-2.9h41.3c1.6 0 2.9 1.3 2.9 2.9v25c-.1 1.5-1.3 2.8-2.9 2.8z"
          fill="#C3E2FC"/>
    <path d="M57.1 38.2h-2.9V11.9c0-2.6-2-4.7-4.5-4.7H10.3c-2.5 0-4.5 2.1-4.5 4.7v26.3H2.9c-1.6 0-2.9 1.4-2.9 3v.2c0 3.3 2.6 6 5.8 6h48.5c3.2 0 5.8-2.7 5.8-6v-.2c-.1-1.7-1.4-3-3-3zm-55 3c0-.4.3-.8.7-.8h20.3c.7 1.7 2.4 2.8 4.2 2.8h5.4c1.8 0 3.4-1.1 4.2-2.8h20.3c.4 0 .7.4.7.8v.2c0 2.1-1.6 3.8-3.6 3.8H5.8c-2 0-3.6-1.7-3.6-3.8v-.2h-.1zm50-3H35.2l-.2.8c-.3 1.1-1.3 1.9-2.3 1.9h-5.4c-1.1 0-2.1-.8-2.3-1.9l-.2-.9H7.9V11.9c0-1.4 1.1-2.5 2.4-2.5h39.4c1.3 0 2.4 1.1 2.4 2.5v26.3z"
          fill="#333E50"/>
    <path d="M18.7 17.3h-1c-.5 0-.9.4-.9 1v.6c0 .5.4 1 .9 1h1c.5 0 .9-.4.9-1v-.6c0-.6-.4-1-.9-1zM42.4 17.3H21.3c-.5 0-.9.4-.9 1v.6c0 .5.4 1 .9 1h21.1c.5 0 .9-.4.9-1v-.6c0-.6-.4-1-.9-1zM18.7 21.6h-1c-.5 0-.9.4-.9 1v.6c0 .5.4 1 .9 1h1c.5 0 .9-.4.9-1v-.6c0-.6-.4-1-.9-1zM33.2 21.6H21.3c-.5 0-.9.4-.9 1v.6c0 .5.4 1 .9 1h11.9c.5 0 .9-.4.9-1v-.6c0-.6-.4-1-.9-1zM18.7 25.9h-1c-.5 0-.9.4-.9 1v.6c0 .5.4 1 .9 1h1c.5 0 .9-.4.9-1v-.6c0-.6-.4-1-.9-1zM37 25.9H21.3c-.5 0-.9.4-.9 1v.6c0 .5.4 1 .9 1H37c.5 0 .9-.4.9-1v-.6c0-.6-.4-1-.9-1z"
          fill="#333E50"/>
    <path d="M46.2 24.8c6.406 0 11.6-5.194 11.6-11.6S52.606 1.6 46.2 1.6c-6.407 0-11.6 5.194-11.6 11.6 0 6.407 5.194 11.6 11.6 11.6z"
          fill="#fff"/>
    <path d="M46.2 25.8c-6.9 0-12.6-5.6-12.6-12.6S39.3.7 46.2.7c6.9 0 12.6 5.6 12.6 12.6s-5.7 12.5-12.6 12.5zm0-23.1c-5.8 0-10.6 4.7-10.6 10.6 0 5.9 4.7 10.6 10.6 10.6 5.9 0 10.6-4.9 10.6-10.7 0-5.8-4.8-10.5-10.6-10.5z"
          fill="#333E50"/>
    <path d="M43.8 18.4c.3.2.6.2.9 0l.4-.4.4-.4.4-.4.4-.4.8-.8 3.1-3.1c.3-.3.6-.6.9-.8l.3-.3.7-.7.8-.8c.2-.2.2-.6 0-.9l-.7-.7-.4-.4-.3-.3c-.1-.1-.3-.2-.4-.2-.2 0-.3.1-.4.2 0 0-.1 0-.1.1l-2 2c-.6.6-1.3 1.3-2 1.9l-1.7 1.7-.3.3-.3.3-2.4-2.3-.2-.2c-.1-.1-.2-.1-.3-.1-.2 0-.3.1-.5.2l-1.4 1.4-.2.2c-.2.2-.1.5.1.8.1.1.2.3.4.4l.2.2c0-.1 3.8 3.5 3.8 3.5z"
          fill="#95CE5A"/>
    <path d="M44.2 19.6c-.4 0-.8-.1-1.1-.4l-4-3.9s-.2-.1-.3-.3l-.2-.2c-.4-.6-.5-1.3-.2-1.8.1-.2.3-.4.3-.5l1.4-1.4c.3-.3.7-.5 1.2-.5.2 0 .6 0 .9.3l.3.3 1.7 1.6 1.6-1.6c.3-.3.7-.6 1-1 .3-.3.7-.6 1-1l2-2L50 7c.7-.4 1.4-.4 2 .1l1 1 .5.5c.3.3.4.7.4 1.1 0 .4-.2.8-.5 1.2l-.8.8-.4.4-.3.3-.3.3-.4.4c-.2.2-.3.3-.5.4l-3.1 3.1c-.2.2-.4.4-.5.6l-1.4 1.4-.4.4c-.3.5-.7.6-1.1.6zm-3.8-5.9c0 .1.1.1 0 0l3.8 3.7.2-.2 1.4-1.4.5-.5 3.2-3.1c.2-.1.3-.3.4-.4l.5-.5.3-.3.4-.4.3-.3.5-.5-.2-.2-.6-.6-1.8 1.8-1 1c-.3.3-.7.6-1 1l-3 3-2.9-2.8-1 .7z"
          fill="#333E50"/>
</svg>