<svg width="883" height="135" fill="none" xmlns="http://www.w3.org/2000/svg">
    <g clip-path="url(#a)">
        <path d="m577.057 30.686-20.834.027-27.12 30.898h-12.015V30.58h-15.949v76.875h15.949V75.845h11.725l31.951 31.611h21.654l-38.263-38.398 32.902-38.372ZM292.978 67.526a18.76 18.76 0 0 0 6.866-14.789c0-13.019-10.193-22.103-24.769-22.103h-50.41v76.875h50.7c16.504 0 27.172-9.032 27.172-22.976a19.591 19.591 0 0 0-9.559-17.007Zm-52.337 8.398h36.124c6.363 0 9.321 2.641 9.321 8.61 0 5.968-3.723 8.503-11.011 8.503h-34.329l-.105-17.113Zm35.226-14.472h-35.226V45.239h34.328a7.922 7.922 0 0 1 8.899 8.318 7.58 7.58 0 0 1-8.107 7.923M756.25 28.39c-25.429 0-44.626 17.481-44.626 40.642 0 23.16 19.197 40.616 44.626 40.616s44.416-17.086 44.416-40.616-19.092-40.643-44.416-40.643Zm27.938 40.615c0 15.212-11.487 25.854-27.938 25.854s-28.149-10.378-28.149-25.854c0-14.947 11.83-25.774 28.149-25.774 16.319 0 27.938 10.563 27.938 25.774ZM845.821 59.076c-10.563-1.796-19.647-3.354-19.647-8.451 0-6.1 11.302-7.025 18.036-7.025a68.788 68.788 0 0 1 27.225 6.682l.95.449 6.074-13.205-.872-.475a69.838 69.838 0 0 0-33.668-8.292c-20.676 0-33.536 8.662-33.536 22.579 0 17.852 19.752 21.259 35.622 23.979 11.382 1.954 21.125 3.644 21.125 9.639 0 5.995-7.552 9.401-20.227 9.401a60.727 60.727 0 0 1-31.687-9.031l-1.004-.581-5.994 13.706.819.449a70.654 70.654 0 0 0 37.681 10.22c26.644 0 36.124-12.492 36.124-24.164 0-19.595-20.623-23.108-37.18-25.96M343.837 30.634l-37.313 76.875h17.323l8.556-18.143h39.054l8.556 18.143h17.296l-37.497-76.875h-15.975Zm20.781 44.472h-25.482L351.917 48.3l12.701 26.805ZM466.995 51.232c0 9.428 0 20.546.766 34.147l-47.373-54.745h-15.686v76.875h15.659V86.937c0-5.863 0-22.79-.396-34.094l47.109 54.666h15.58V30.634h-15.659v20.598ZM701.22 55.458c0-14.868-10.801-24.877-26.856-24.877h-49.115v76.875h15.975V79.938h14.101l27.252 27.491h20.887l-28.228-27.86c18.484-.793 25.984-11.409 25.984-24.032v-.08Zm-15.844.079c0 6.127-4.806 9.93-12.517 9.93h-31.687V45.131h33.192c6.998 0 11.012 3.803 11.012 10.405ZM607.662 30.58h-16.319v76.876h16.319V30.581ZM44.995.012l-45 45.003 89.98 89.988 45-45.003L44.995.012Z"
              fill="#2494EC"/>
        <path d="m44.983 89.978 45 45.003 89.981-89.988-45-45.003-89.98 89.988Z" fill="#64C824"/>
    </g>
    <defs>
        <clipPath id="a">
            <path fill="#fff" d="M0 0h883v135H0z"/>
        </clipPath>
    </defs>
</svg>